<?xml version="1.0" encoding="utf-8"?>
<!-- Generator: Adobe Illustrator 22.0.0, SVG Export Plug-In . SVG Version: 6.00 Build 0)  -->
<svg version="1.1" id="Isolation_Mode" xmlns="http://www.w3.org/2000/svg" xmlns:xlink="http://www.w3.org/1999/xlink" x="0px"
	 y="0px" viewBox="-7.833 0 287.833 41.834" enable-background="new -7.833 0 287.833 41.834" xml:space="preserve">
<g>
	<g>
		<g>
			<path d="M106.043,24.426l-5.341-11.973h-3.698v22.006h3.866V22.79l5.034,11.669h4.005V12.453h-3.866V24.426z M63.608,15.889h4.34
				v18.57h4.116v-18.57h4.395v-3.436H63.608V15.889z M56.375,12.453h-4.756c-2.787,0-3.922,1.041-3.922,4.213v3.852
				c0,2.158,0.757,2.941,2.614,3.771l5.035,2.244c0.44,0.197,0.75,0.457,0.75,0.999v2.604c0,0.493-0.217,0.913-0.779,0.913h-2.559
				c-0.575,0-0.89-0.314-0.89-0.886v-2.148l-4.172-0.942v3.562c0,2.51,1.165,3.825,3.616,3.825h5.423
				c2.367,0,3.532-1.287,3.532-3.825v-3.991c0-2.247-0.854-3.089-3.031-4.074l-4.785-2.161c-0.332-0.149-0.583-0.409-0.583-0.941
				v-2.661c0-0.605,0.309-0.915,0.89-0.915h2.421c0.548,0,0.917,0.276,0.917,0.97v2.231l4.172,1.165v-3.7
				C60.269,13.682,59.297,12.453,56.375,12.453z M38.92,30.106c0,0.556-0.335,0.889-0.807,0.889h-2.504
				c-0.61,0-0.917-0.36-0.917-0.889V12.453h-4.145V30.19c0,3.05,1.058,4.27,3.81,4.27h4.867c2.697,0,3.895-1.22,3.895-4.27V12.453
				H38.92V30.106z M4.482,21.543H0.2v-9.09h-4.117v22.006H0.2v-9.562h4.282v9.562h4.144V12.453H4.482V21.543z M22.091,12.453h-4.98
				c-2.807,0-3.811,1.228-3.811,4.213v13.636c0,3.063,1.139,4.157,3.729,4.157h5.146c2.685,0,3.727-1.226,3.727-4.157V16.666
				C25.901,13.461,24.723,12.453,22.091,12.453z M21.728,30.078c0,0.54-0.244,0.971-0.89,0.971h-2.447
				c-0.671,0-0.918-0.4-0.918-1.024V16.748c0-0.556,0.312-0.859,0.808-0.859h2.614c0.475,0,0.833,0.284,0.833,0.859V30.078z
				 M88.641,12.453h-4.979c-2.809,0-3.811,1.228-3.811,4.213v13.636c0,3.063,1.138,4.157,3.729,4.157h5.146
				c2.685,0,3.728-1.226,3.728-4.157V16.666C92.452,13.461,91.272,12.453,88.641,12.453z M88.278,30.078
				c0,0.54-0.244,0.971-0.89,0.971H84.94c-0.67,0-0.916-0.4-0.916-1.024V16.748c0-0.556,0.312-0.859,0.805-0.859h2.615
				c0.475,0,0.834,0.284,0.834,0.859V30.078z M216.494,24.426l-5.339-11.973h-3.701v22.006h3.865V22.79l5.037,11.669h4.004V12.453
				h-3.866V24.426L216.494,24.426z M199.274,12.453h-4.979c-2.812,0-3.812,1.228-3.812,4.213v13.636
				c0,3.063,1.138,4.157,3.729,4.157h5.146c2.685,0,3.727-1.226,3.727-4.157V16.666C203.084,13.461,201.905,12.453,199.274,12.453z
				 M198.912,30.078c0,0.54-0.247,0.971-0.892,0.971h-2.446c-0.671,0-0.919-0.4-0.919-1.024V16.748c0-0.556,0.312-0.859,0.808-0.859
				h2.615c0.473,0,0.834,0.284,0.834,0.859V30.078z M276.084,15.85v-3.381h-10.792v22.006h10.792v-3.409h-6.648v-6.042h5.342v-3.382
				h-5.342V15.85H276.084z M254.888,12.469h-4.119v22.006h10.402v-3.409h-6.283V12.469z M225.272,34.475h4.119V12.469h-4.119V34.475
				z M164.285,21.56h-4.283v-9.091h-4.118v22.006h4.118v-9.562h4.283v9.562h4.172V12.469h-4.172V21.56z M147.44,12.469h-5.062
				c-2.188,0-3.701,0.885-3.701,3.824v14.273c0,2.836,1.217,3.907,3.783,3.907h5.009c2.567,0,3.781-1.098,3.781-3.935v-2.66
				l-4.171-0.998v3.271c0,0.533-0.375,0.914-0.862,0.914h-2.504c-0.514,0-0.862-0.412-0.862-0.97V16.792
				c0-0.588,0.373-0.886,0.893-0.886h2.503c0.555,0,0.834,0.309,0.834,0.747v3.299l4.171-0.998v-2.661
				C151.25,13.703,150.174,12.469,147.44,12.469z M242.874,12.469h-5.063c-2.187,0-3.699,0.885-3.699,3.824v14.273
				c0,2.836,1.215,3.907,3.783,3.907h5.008c2.566,0,3.783-1.098,3.783-3.935v-2.66l-4.174-0.998v3.271
				c0,0.533-0.373,0.914-0.863,0.914h-2.504c-0.512,0-0.861-0.412-0.861-0.97V16.792c0-0.588,0.375-0.886,0.893-0.886h2.504
				c0.555,0,0.832,0.309,0.832,0.747v3.299l4.174-0.998v-2.661C246.686,13.703,245.606,12.469,242.874,12.469z M186.427,21.476
				v-5.127c0-2.888-1.349-3.88-3.781-3.88h-8.789v22.006h4.172v-8.73h1.641l3.006,8.73h4.256l-3.255-9.175
				C185.672,24.706,186.427,23.751,186.427,21.476z M182.255,21.365c0,0.559-0.398,0.888-0.974,0.888h-3.253v-6.347h3.17
				c0.703,0,1.057,0.317,1.057,1.024V21.365z"/>
		</g>
	</g>
	<g>
		
			<linearGradient id="SVGID_1_" gradientUnits="userSpaceOnUse" x1="-79.554" y1="204.083" x2="-79.554" y2="236.083" gradientTransform="matrix(1 0 0 -1 204 241)">
			<stop  offset="0" style="stop-color:#FFB400"/>
			<stop  offset="0.0138" style="stop-color:#FFB400"/>
			<stop  offset="0.5501" style="stop-color:#FFC300"/>
			<stop  offset="1" style="stop-color:#FFC800"/>
		</linearGradient>
		<polygon fill="url(#SVGID_1_)" points="141.252,17.143 128.41,17.143 124.445,4.917 120.478,17.143 107.64,17.143 118.025,24.693 
			114.06,36.917 124.445,29.366 134.833,36.917 130.866,24.693 		"/>
		<g>
			
				<linearGradient id="SVGID_2_" gradientUnits="userSpaceOnUse" x1="-78.2656" y1="216.7591" x2="-62.6813" y2="221.7747" gradientTransform="matrix(1 0 0 -1 204 241)">
				<stop  offset="0" style="stop-color:#E2963C"/>
				<stop  offset="0.2467" style="stop-color:#E49A3B"/>
				<stop  offset="1" style="stop-color:#E9A03A"/>
			</linearGradient>
			<polygon fill="url(#SVGID_2_)" points="124.445,22.606 130.866,24.693 141.252,17.143 			"/>
			
				<linearGradient id="SVGID_3_" gradientUnits="userSpaceOnUse" x1="-71.1516" y1="223.8955" x2="-71.1516" y2="218.3301" gradientTransform="matrix(1 0 0 -1 204 241)">
				<stop  offset="0" style="stop-color:#F0A73D"/>
				<stop  offset="0.4508" style="stop-color:#F6CC58"/>
				<stop  offset="1" style="stop-color:#FDEFA0"/>
			</linearGradient>
			<polygon fill="url(#SVGID_3_)" points="141.252,17.143 128.41,17.143 124.445,22.606 			"/>
			
				<linearGradient id="SVGID_4_" gradientUnits="userSpaceOnUse" x1="-86.7224" y1="216.2991" x2="-83.8531" y2="208.9467" gradientTransform="matrix(1 0 0 -1 204 241)">
				<stop  offset="0" style="stop-color:#F3C642"/>
				<stop  offset="0.5414" style="stop-color:#F8D962"/>
				<stop  offset="1" style="stop-color:#FCE679"/>
			</linearGradient>
			<polygon fill="url(#SVGID_4_)" points="124.445,22.606 118.025,24.693 114.06,36.917 			"/>
			
				<linearGradient id="SVGID_5_" gradientUnits="userSpaceOnUse" x1="-84.8319" y1="211.3082" x2="-81.7829" y2="208.7972" gradientTransform="matrix(1 0 0 -1 204 241)">
				<stop  offset="0" style="stop-color:#E49C3A"/>
				<stop  offset="0.2718" style="stop-color:#E9AB3C"/>
				<stop  offset="0.6963" style="stop-color:#F0BD3E"/>
				<stop  offset="1" style="stop-color:#F2C43F"/>
			</linearGradient>
			<polygon fill="url(#SVGID_5_)" points="114.06,36.917 124.445,29.366 124.445,22.606 			"/>
			
				<linearGradient id="SVGID_6_" gradientUnits="userSpaceOnUse" x1="-79.5552" y1="227.2387" x2="-75.5898" y2="227.2387" gradientTransform="matrix(1 0 0 -1 204 241)">
				<stop  offset="0" style="stop-color:#E6A14E"/>
				<stop  offset="0.5217" style="stop-color:#E8A040"/>
				<stop  offset="1" style="stop-color:#E9A03A"/>
			</linearGradient>
			<polygon fill="url(#SVGID_6_)" points="124.445,22.606 124.445,22.606 128.41,17.143 124.445,4.917 			"/>
			
				<linearGradient id="SVGID_7_" gradientUnits="userSpaceOnUse" x1="-76.42" y1="210.5816" x2="-71.7047" y2="212.0866" gradientTransform="matrix(1 0 0 -1 204 241)">
				<stop  offset="0" style="stop-color:#EDA23D"/>
				<stop  offset="0.6528" style="stop-color:#F2B455"/>
				<stop  offset="1" style="stop-color:#F5BF64"/>
			</linearGradient>
			<polygon fill="url(#SVGID_7_)" points="124.445,22.606 124.445,22.606 134.833,36.917 130.866,24.693 			"/>
			
				<linearGradient id="SVGID_8_" gradientUnits="userSpaceOnUse" x1="-79.5413" y1="209.6008" x2="-73.1228" y2="211.6303" gradientTransform="matrix(1 0 0 -1 204 241)">
				<stop  offset="0" style="stop-color:#EDA43C"/>
				<stop  offset="0.3052" style="stop-color:#F6CD43"/>
				<stop  offset="1" style="stop-color:#FCEC88"/>
			</linearGradient>
			<polygon fill="url(#SVGID_8_)" points="124.445,22.606 124.445,29.366 134.833,36.917 			"/>
			
				<linearGradient id="SVGID_9_" gradientUnits="userSpaceOnUse" x1="-83.8897" y1="233.2026" x2="-75.6889" y2="221.9191" gradientTransform="matrix(1 0 0 -1 204 241)">
				<stop  offset="0" style="stop-color:#F6D252"/>
				<stop  offset="0.0183" style="stop-color:#F6D456"/>
				<stop  offset="0.1586" style="stop-color:#F9DD71"/>
				<stop  offset="0.3118" style="stop-color:#FBE586"/>
				<stop  offset="0.4826" style="stop-color:#FCEB95"/>
				<stop  offset="0.6852" style="stop-color:#FDEE9D"/>
				<stop  offset="1" style="stop-color:#FDEFA0"/>
			</linearGradient>
			<polygon fill="url(#SVGID_9_)" points="124.445,4.917 120.478,17.143 124.445,22.606 			"/>
			
				<linearGradient id="SVGID_10_" gradientUnits="userSpaceOnUse" x1="-90.5601" y1="225.6461" x2="-85.1191" y2="216.196" gradientTransform="matrix(1 0 0 -1 204 241)">
				<stop  offset="0" style="stop-color:#FAD550"/>
				<stop  offset="0.2552" style="stop-color:#F8D14F"/>
				<stop  offset="0.5086" style="stop-color:#F4C54B"/>
				<stop  offset="0.7604" style="stop-color:#ECB145"/>
				<stop  offset="1" style="stop-color:#E2973D"/>
			</linearGradient>
			<polygon fill="url(#SVGID_10_)" points="124.445,22.606 107.64,17.143 118.025,24.693 			"/>
			
				<linearGradient id="SVGID_11_" gradientUnits="userSpaceOnUse" x1="-95.7635" y1="225.7637" x2="-78.9704" y2="220.2656" gradientTransform="matrix(1 0 0 -1 204 241)">
				<stop  offset="0" style="stop-color:#FDE87D"/>
				<stop  offset="0.3032" style="stop-color:#FDE67A"/>
				<stop  offset="0.5429" style="stop-color:#FBE070"/>
				<stop  offset="0.7609" style="stop-color:#F8D75F"/>
				<stop  offset="0.9649" style="stop-color:#F5C948"/>
				<stop  offset="1" style="stop-color:#F4C643"/>
			</linearGradient>
			<polygon fill="url(#SVGID_11_)" points="124.445,22.606 120.478,17.143 107.64,17.143 			"/>
		</g>
	</g>
</g>
</svg>
